#N canvas 835 103 1268 509 12;
#X obj 77 146 oscparse;
#X obj 77 191 list trim;
#X text 646 4 matd.space;
#X text 644 33 mathewdalgleish@gmail.com;
#X obj 77 97 netreceive -u -b 9000;
#X obj 77 240 route ukweather;
#X obj 77 277 route london;
#X obj 77 320 route temperature wind_speed wind_dir_deg;
#X floatatom 77 365 5 0 0 0 - - - 0;
#X floatatom 171 364 5 0 0 0 - - - 0;
#X floatatom 266 364 5 0 0 0 - - - 0;
#X obj 404 320 route temperature wind_speed wind_dir_deg;
#X floatatom 404 365 5 0 0 0 - - - 0;
#X floatatom 498 364 5 0 0 0 - - - 0;
#X floatatom 593 364 5 0 0 0 - - - 0;
#X obj 404 277 route birmingham;
#X obj 735 320 route temperature wind_speed wind_dir_deg;
#X floatatom 735 365 5 0 0 0 - - - 0;
#X floatatom 829 364 5 0 0 0 - - - 0;
#X floatatom 924 364 5 0 0 0 - - - 0;
#X obj 735 277 route manchester;
#X text 641 121 Gets the weather for the 10 biggest UK cities from open meteo;
#X connect 0 0 1 0;
#X connect 1 0 5 0;
#X connect 4 0 0 0;
#X connect 5 0 6 0;
#X connect 5 0 15 0;
#X connect 5 0 20 0;
#X connect 6 0 7 0;
#X connect 7 0 8 0;
#X connect 7 1 9 0;
#X connect 7 2 10 0;
#X connect 11 0 12 0;
#X connect 11 1 13 0;
#X connect 11 2 14 0;
#X connect 15 0 11 0;
#X connect 16 0 17 0;
#X connect 16 1 18 0;
#X connect 16 2 19 0;
#X connect 20 0 16 0;
